<svg width="25" height="25" viewBox="0 0 25 25" fill="none" xmlns="http://www.w3.org/2000/svg">
<path d="M10.625 2.5C6.1375 2.5 2.5 6.1375 2.5 10.625C2.5 15.1125 6.1375 18.75 10.625 18.75C12.8687 18.75 14.8987 17.8425 16.37 16.37C17.8425 14.8987 18.75 12.8687 18.75 10.625C18.75 6.1375 15.1125 2.5 10.625 2.5ZM0 10.625C0 4.7575 4.7575 0 10.625 0C16.4925 0 21.25 4.7575 21.25 10.625C21.25 13.1075 20.3975 15.3938 18.97 17.2025L24.9463 23.1787L23.1787 24.9463L17.2025 18.97C15.3938 20.3975 13.1075 21.25 10.625 21.25C4.7575 21.25 0 16.4925 0 10.625Z" fill="#27272A"/>
</svg>
